<svg xmlns="http://www.w3.org/2000/svg" viewBox="0 0 24 24"><defs><style>.a{fill:none;stroke:#000;stroke-linecap:round;stroke-linejoin:round;}</style></defs><title>designer-community-behance-1</title><path class="a" d="M12.5,15.971a3.529,3.529,0,0,0-2.26-3.521,3.057,3.057,0,0,0,1.794-3.063c0-3.139-2.582-3.858-4.463-3.887H.5v15H7.092C11.91,20.5,12.5,17.344,12.5,15.971ZM3.5,8.5h4A1.5,1.5,0,0,1,9,10H9a1.5,1.5,0,0,1-1.5,1.5h-4Zm0,5h4a2.006,2.006,0,0,1,2,2h0a2.006,2.006,0,0,1-2,2h-4Z"/><rect class="a" x="15.5" y="4.5" width="6" height="2" rx="0.5" ry="0.5"/><path class="a" d="M20.642,17.5a.5.5,0,0,0-.35.143,3.109,3.109,0,0,1-1.872.558,2.483,2.483,0,0,1-2.633-2.7H23a.5.5,0,0,0,.5-.5c-.019-5.776-4.107-6-5-6C15.908,9,13,10.274,13,14.824c0,4.783,3.459,5.676,5.5,5.676a5.115,5.115,0,0,0,4.605-2.222.5.5,0,0,0-.415-.778ZM16,13.5A2.507,2.507,0,0,1,18.5,11h0A2.507,2.507,0,0,1,21,13.5Z"/></svg>