<?xml version="1.0" encoding="UTF-8"?><svg version="1.1" viewBox="0 0 24 24" xmlns="http://www.w3.org/2000/svg" xmlns:xlink="http://www.w3.org/1999/xlink"><!--Generated by IJSVG (https://github.com/iconjar/IJSVG)--><g stroke-linecap="round" stroke-width="1" stroke="#000" fill="none" stroke-linejoin="round"><path d="M12.132,8l4.26841e-11,1.72858e-05c0,1.92871 -1.56032,3.49393 -3.48902,3.49998h-8.14298v-7h8.143l1.64159e-07,5.15936e-10c1.9287,0.00606175 3.48901,1.57129 3.489,3.5Z"></path><path d="M12.132,15l4.26841e-11,1.72858e-05c0,1.92871 -1.56032,3.49393 -3.48902,3.49998h-8.14298v-7h8.143l1.64159e-07,5.15936e-10c1.9287,0.00606175 3.48901,1.57129 3.489,3.5Z"></path><path d="M23.111,15.433l1.34256e-07,-3.20162e-07c-1.06788,2.54659 -3.99798,3.74531 -6.54457,2.67743c-2.54659,-1.06788 -3.74531,-3.99798 -2.67743,-6.54457c1.06788,-2.54659 3.99798,-3.74531 6.54457,-2.67743c1.85784,0.779062 3.06666,2.59699 3.06643,4.61157h-10"></path><path d="M16,5.5h5"></path></g></svg>